<?xml version="1.0"?>

<svg version="1.1" id="Layer_1" xmlns="http://www.w3.org/2000/svg" xmlns:xlink="http://www.w3.org/1999/xlink" x="0px" y="0px" viewBox="0 0 2000 468.8" style="enable-background:new 0 0 2000 468.8;" xml:space="preserve">
<path fill="#111111" d="M45.7,170.1h27.3v89.2l-0.8,29l35.4-0.4h83.9l35.4,0.4l-0.8-28.6v-89.6h27.3v264.9h-27.3v-96.4l0.8-27.4l-35.8,0.4h-83.5&#xA;&#x9;l-35.4-0.4l0.8,27.4v96.4H45.7V170.1z M281.2,170.1h27.3v264.9h-27.3V170.1z M336.3,170.1h35l128.6,198.2l17.7,34.7h5.8l-2.3-39.2&#xA;&#x9;V170.1H548v264.9h-35.4L378.6,228l-11.9-25.9h-5.8l2.3,39.3v193.6h-27V170.1z M568.3,303.1c0-82.3,48.5-136.8,119.7-136.8&#xA;&#x9;c61.2,0,105.1,37.7,110.8,99.5l-26.9,2.7c-5-48.8-38.1-78.5-83.9-78.5c-55,0-92,45.4-92,112.8c0,67.8,36.2,112,92.4,112&#xA;&#x9;c48.1,0,81.6-29.3,87.4-78.9l26.2,1.9c-6.5,62.9-50.8,101-113.5,101C616,438.8,568.3,385.8,568.3,303.1z M821.1,170.1h27.3v89.2&#xA;&#x9;l-0.8,29l35.4-0.4H967l35.4,0.4l-0.8-28.6v-89.6h27.3v264.9h-27.3v-96.4l0.8-27.4l-35.8,0.4h-83.5l-35.4-0.4l0.8,27.4v96.4h-27.3&#xA;&#x9;V170.1z M1057.8,170.1h187.8v24l-161.3-0.4l0.8,37.4v20.6l-0.8,35.1l142.8-0.4v24l-142.8-0.4l0.8,35.1v29.7l-0.8,37l161.3-0.4v23.6&#xA;&#x9;h-187.8V170.1z M1262.1,170.1h27.3v201.2l-0.8,40.4l40.8-0.8H1443v24h-180.9V170.1z M1518.5,330.9l-117.8-160.8h33.5l78.9,109.4&#xA;&#x9;l16.6,30.1h4.6l16.2-30.1l78.9-109.4h33.5l-117.4,160.8v104h-26.9V330.9z M1648.1,355.3l28.1-3.1c7.3,39.3,41.6,62.5,87,62.5&#xA;&#x9;c46.2,0,73.5-20.6,73.5-51.4c0-27.1-14.2-40.4-53.1-46.1l-50.4-7.6c-48.5-7.2-75.8-29-75.8-67.5c0-44.2,40-75.8,95.1-75.8&#xA;&#x9;c52.3,0,91.2,27.4,98.1,86.5l-25.8,1.9c-5.8-44.6-33.9-64.4-72.4-64.4c-40,0-68.1,21-68.1,51.8c0,24.8,16.9,38.5,52,43.4l51.6,7.6&#xA;&#x9;c50,7.6,75.8,30.1,75.8,69.7c0,45-38.5,75.8-100.1,75.8C1703.2,438.8,1658.1,408.6,1648.1,355.3z M1954.3,126.6&#xA;&#x9;c-37.5,0-67.9,30.4-67.9,67.9c0-37.5-30.4-67.9-67.9-67.9c36.9,1.1,67.9-30.4,67.9-67.9C1886.3,96.2,1916.7,126.6,1954.3,126.6z"></path>
</svg>