<?xml version="1.0"?>

<svg version="1.1" id="Layer_1" xmlns="http://www.w3.org/2000/svg" xmlns:xlink="http://www.w3.org/1999/xlink" x="0px" y="0px" viewBox="0 0 2000 2000" style="enable-background:new 0 0 2000 2000;" xml:space="preserve">

<path fill="#111111" d="M2000,1000c-552.3,0-1000,447.7-1000,1000c0-552.3-447.7-1000-1000-1000C543.4,1016.6,1000,552.3,1000,0&#xA;&#x9;C1000,552.3,1447.7,1000,2000,1000z"></path>
<g>
&#x9;<path fill="#F3F3F3" d="M792,756.4h49.8v164l-1.4,53.3l64.5-0.7h190.3l64.5,0.7l-1.4-52.6V756.4h49.8v487.1h-49.8v-177.3l1.4-50.5&#xA;&#x9;&#x9;l-65.2,0.7H904.9l-64.5-0.7l1.4,50.5v177.3H792V756.4z"></path>
</g>
</svg>